<svg width="25" height="25" viewBox="0 0 25 25" fill="none" xmlns="http://www.w3.org/2000/svg">
<path fill-rule="evenodd" clip-rule="evenodd" d="M7.15681 3.29344C3.48522 4.47552 1.84757 8.48384 3.07853 12.3077C3.70317 14.1083 4.71905 15.7266 6.05374 17.0544C7.88472 18.8326 9.89624 20.3976 12.0586 21.7272L12.3041 21.8743C12.5393 22.015 12.8335 22.0126 13.0663 21.8679L13.2955 21.7254C15.4549 20.3976 17.4664 18.8326 19.2911 17.0605C20.6321 15.7266 21.648 14.1083 22.2674 12.3233C23.5028 8.48616 21.8584 4.47595 18.1857 3.2935L17.92 3.21438C16.2361 2.75124 14.4467 2.97945 12.9382 3.8335L12.6701 3.99244L12.4067 3.83438C10.8156 2.93159 8.9141 2.72818 7.15681 3.29344ZM12.0484 5.33242L12.2451 5.47353C12.5044 5.65926 12.8543 5.65557 13.1097 5.4644C14.4397 4.46871 16.161 4.17897 17.7378 4.68484C20.5834 5.60099 21.8784 8.75911 20.8801 11.8601C20.3387 13.4199 19.4424 14.8477 18.2653 16.0187L17.7373 16.5203C16.3147 17.8423 14.7763 19.0391 13.1428 20.0937L12.675 20.388L12.8177 20.478C10.7542 19.209 8.82746 17.71 7.07952 16.0125C5.90876 14.8477 5.01247 13.4199 4.46578 11.8445C3.47178 8.75616 4.76117 5.60027 7.60524 4.68461C9.10702 4.20154 10.7443 4.44104 12.0484 5.33242ZM16.544 6.96189C16.1592 6.83908 15.7476 7.05118 15.6247 7.43564C15.5018 7.82009 15.7141 8.23131 16.0989 8.35412C16.8551 8.5955 17.3943 9.27618 17.4618 10.0791C17.4957 10.4813 17.8494 10.7799 18.2519 10.7461C18.6544 10.7123 18.9533 10.3589 18.9194 9.95668C18.8025 8.56674 17.8654 7.38366 16.544 6.96189Z" fill="#1E1E1E"/>
</svg>
